<svg xmlns="http://www.w3.org/2000/svg" xmlns:xlink="http://www.w3.org/1999/xlink" viewBox="0 0 1244.63 964.15"><defs><style>.cls-1{fill:none;}.cls-2{clip-path:url(#clip-path);}.cls-3{fill:#dae9f8;}.cls-4{fill:#d7dcfc;}.cls-5{fill:#ccd1f0;}.cls-6{fill:#60c496;}.cls-7{fill:#9ae1a9;}.cls-8{fill:#a6c4e3;}</style><clipPath id="clip-path" transform="translate(94.02 136.29)"><rect class="cls-1" width="1122.96" height="841.81"/></clipPath></defs><g id="Layer_2" data-name="Layer 2"><g id="Layer_3" data-name="Layer 3"><g class="cls-2"><path class="cls-3" d="M1123,752.43h0a2165.69,2165.69,0,0,1-1125,0h0V-136.29H1123Z" transform="translate(94.02 136.29)"/><path class="cls-4" d="M1124.23,252.86S1064,109.09,941.49,109.09,372.29,504.33,202.37,509.52-12.49,616.36-12.49,616.36L1.27,740.14l1118.2-26.55,1.77-171.47Z" transform="translate(94.02 136.29)"/><path class="cls-5" d="M0,258.75S60.19,115,182.74,115s569.2,395.24,739.12,400.43,214.86,106.84,214.86,106.84L1123,746,4.76,719.49,3,548Z" transform="translate(94.02 136.29)"/><circle class="cls-6" cx="1038.32" cy="557.41" r="110.88"/><ellipse class="cls-6" cx="1029.43" cy="494.28" rx="73.14" ry="122.51" transform="translate(447.16 1550.71) rotate(-79.33)"/><circle class="cls-6" cx="970.47" cy="629.37" r="95.81"/><circle class="cls-7" cx="1008.93" cy="745.14" r="125.52"/><circle class="cls-7" cx="1133.57" cy="740.77" r="98.79"/><ellipse class="cls-7" cx="755.51" cy="581.94" rx="98.79" ry="138.62" transform="translate(141.09 1356.64) rotate(-79.63)"/><ellipse class="cls-6" cx="215.71" cy="585.92" rx="110.88" ry="89.77"/><ellipse class="cls-6" cx="337.11" cy="656.72" rx="122.46" ry="95.81"/><circle class="cls-6" cx="161.92" cy="647.81" r="95.81"/><circle class="cls-7" cx="210.38" cy="756.81" r="125.52"/><ellipse class="cls-7" cx="401.64" cy="750.5" rx="158.02" ry="98.79"/><circle class="cls-7" cx="98.79" cy="757" r="98.79"/><path class="cls-8" d="M0,620.29H0V753.53H0a2165.69,2165.69,0,0,0,1125,0h0V620.29h0A2165.48,2165.48,0,0,0,0,620.29Z" transform="translate(94.02 136.29)"/></g></g></g></svg>