<svg xmlns="http://www.w3.org/2000/svg" viewBox="0 0 704.73 556.75"><defs><style>.cls-1{fill:none;stroke:#de687b;stroke-linecap:round;stroke-linejoin:round;stroke-width:52px;}.cls-2{fill:#f57388;}.cls-3{fill:#4f362c;}.cls-4{fill:#4a3329;}.cls-5{fill:#73573b;}.cls-6{fill:#ffa6b5;}.cls-7{fill:#de687b;}</style></defs><g id="Layer_2" data-name="Layer 2"><g id="Layer_3" data-name="Layer 3"><path class="cls-1" d="M240.47,201.9s-47,75.58-126.64,71.49C49,270.07,26,203.94,26,203.94"/><polyline class="cls-1" points="461.06 370.39 514.17 527.67 565.23 527.67"/><polyline class="cls-1" points="350.77 373.48 383.45 530.75 332.38 530.75"/><path class="cls-2" d="M166.93,201.42s38,159.63,234.1,233.28a27.19,27.19,0,0,0,20.46-.5c39.87-17.4,186.19-89,243.77-225.15L456.7,91.74,209.32,146.83Z"/><circle class="cls-2" cx="315.06" cy="155.15" r="155.15"/><circle class="cls-2" cx="519.73" cy="155.15" r="155.15"/><circle class="cls-3" cx="343.43" cy="210.32" r="9.78"/><circle class="cls-3" cx="453.34" cy="210.32" r="9.78"/><path class="cls-4" d="M354.93,165.51a4.85,4.85,0,0,1-2.81.33c-17.08-3.12-42.89,10-49.68,22a4.79,4.79,0,1,1-8.35-4.7c9.35-16.6,40.07-30.35,59.76-26.75a4.79,4.79,0,0,1,1.08,9.09Z"/><path class="cls-4" d="M492.32,188.72A4.73,4.73,0,0,1,490.1,187c-9.8-14.34-37.27-23.46-50.61-19.81a4.79,4.79,0,1,1-2.53-9.24c18.37-5,49.76,7.13,61.05,23.65a4.78,4.78,0,0,1-5.69,7.16Z"/><path class="cls-5" d="M416.3,265.88c-14.24,6.11-24.91,4.11-25.56,4a5.59,5.59,0,0,1,2.17-11c.86.15,18.71,3.07,38.38-17.08a5.59,5.59,0,0,1,8,7.81A71.82,71.82,0,0,1,416.3,265.88Z"/><path class="cls-6" d="M252.21,32.37c-39.08,22-82.72,90.38-63.32,116.43,11.23,15.06,18.9-56.69,96-79.66C320.18,58.62,284.89,14,252.21,32.37Z"/><path class="cls-6" d="M558.6,41.56c-25.85,3.23-39.83,36.77-21.45,46s41.36,0,44.42-19.92S570.85,40,558.6,41.56Z"/><path class="cls-7" d="M417.54,38.66A154.59,154.59,0,0,0,315.06,0q-3.72,0-7.41.18C357.91,21.65,388,62.75,384,72.2Z"/><path class="cls-7" d="M653.4,233.94a154.16,154.16,0,0,0,16.67-40.41c-82.13,122.54-248.72,211.16-291,232.29q10.64,4.62,21.95,8.88a27.19,27.19,0,0,0,20.46-.5C458.86,417.9,589.72,354,653.4,233.94Z"/><path class="cls-1" d="M636.72,246.84s59.68,60.39,36.77,106.21c-36.77,73.53-170.3,15.81-170.3,15.81"/><path class="cls-6" d="M542.83,350.49c-1.05-.38-1.57-.62-2.66-1.11l-3.76-1.75c-3.11-1.45-6.23-2.85-9.42-4.09-7.36-2.88-15.27-5-23.23-4.73a32,32,0,0,0-23,10.87c-3.4,3.87-6.37,8.47-7.3,13.6a20.64,20.64,0,0,0,1.8,12.66C478.82,383.41,485.94,389,493,393a1.5,1.5,0,0,0,1.51-2.59c-5.83-3.26-11.51-7.6-15.16-13.28a18.88,18.88,0,0,1-3.25-11c.22-4.83,2.66-9.25,5.62-12.95a29.16,29.16,0,0,1,21.05-11.32c7.51-.49,15,1.41,21.94,4,3.42,1.28,6.76,2.76,10.07,4.31,2.38,1.11,4.75,2.31,7.23,3.21,1.82.65,2.6-2.24.8-2.9Z"/></g></g></svg>